<mxfile host="app.diagrams.net" modified="2023-06-07T08:00:33.822Z" agent="Mozilla/5.0 (Windows NT 10.0; Win64; x64) AppleWebKit/537.36 (KHTML, like Gecko) Chrome/114.0.0.0 Safari/537.36 Edg/114.0.1823.37" etag="n-CDz53pA4pt1daOxQLT" version="21.1.9" type="github" pages="5">
  <diagram name="第 1 页" id="4bVbn6cUmShNyOPI0-UO">
    <mxGraphModel dx="1379" dy="774" grid="1" gridSize="10" guides="1" tooltips="1" connect="1" arrows="1" fold="1" page="1" pageScale="1" pageWidth="826" pageHeight="1169" math="0" shadow="0">
      <root>
        <mxCell id="0" />
        <mxCell id="1" parent="0" />
        <mxCell id="sq8EDjVyNlzPSObER3uH-1" value="供应商商品管理流程" style="swimlane;childLayout=stackLayout;resizeParent=1;resizeParentMax=0;startSize=20;html=1;" parent="1" vertex="1">
          <mxGeometry x="230.00000000000045" y="210" width="730" height="560" as="geometry" />
        </mxCell>
        <mxCell id="sq8EDjVyNlzPSObER3uH-5" value="&lt;font style=&quot;font-size: 12px;&quot;&gt;功能模块&lt;/font&gt;" style="swimlane;startSize=20;html=1;fillColor=#bac8d3;strokeColor=#23445d;labelBackgroundColor=none;fillStyle=auto;swimlaneFillColor=#BAC8D3;" parent="sq8EDjVyNlzPSObER3uH-1" vertex="1">
          <mxGeometry y="20" width="50" height="540" as="geometry" />
        </mxCell>
        <mxCell id="sq8EDjVyNlzPSObER3uH-6" value="&lt;font style=&quot;font-size: 17px;&quot;&gt;供应商商品列表页&lt;/font&gt;" style="text;html=1;align=center;verticalAlign=middle;whiteSpace=wrap;rounded=0;textDirection=ltr;horizontal=0;rotation=90;" parent="sq8EDjVyNlzPSObER3uH-5" vertex="1">
          <mxGeometry x="-67.5" y="225" width="185" height="25" as="geometry" />
        </mxCell>
        <mxCell id="sq8EDjVyNlzPSObER3uH-2" value="&lt;font style=&quot;font-size: 15px;&quot;&gt;vss&lt;/font&gt;" style="swimlane;startSize=20;html=1;fillColor=#dae8fc;strokeColor=#6c8ebf;" parent="sq8EDjVyNlzPSObER3uH-1" vertex="1">
          <mxGeometry x="50" y="20" width="170" height="540" as="geometry" />
        </mxCell>
        <mxCell id="sq8EDjVyNlzPSObER3uH-10" value="&lt;font style=&quot;font-size: 15px;&quot;&gt;查询当前分公司下商品列表&lt;/font&gt;" style="rounded=0;whiteSpace=wrap;html=1;fillColor=#dae8fc;strokeColor=#6c8ebf;" parent="sq8EDjVyNlzPSObER3uH-2" vertex="1">
          <mxGeometry x="20" y="360" width="105" height="45" as="geometry" />
        </mxCell>
        <mxCell id="sq8EDjVyNlzPSObER3uH-13" value="&lt;font style=&quot;font-size: 15px;&quot;&gt;导出excel&lt;/font&gt;" style="rounded=0;whiteSpace=wrap;html=1;fillColor=#dae8fc;strokeColor=#6c8ebf;" parent="sq8EDjVyNlzPSObER3uH-2" vertex="1">
          <mxGeometry x="20" y="460" width="105" height="35" as="geometry" />
        </mxCell>
        <mxCell id="sq8EDjVyNlzPSObER3uH-3" value="&lt;font style=&quot;font-size: 15px;&quot;&gt;srm&lt;/font&gt;" style="swimlane;startSize=20;html=1;fillColor=#d5e8d4;strokeColor=#82b366;" parent="sq8EDjVyNlzPSObER3uH-1" vertex="1">
          <mxGeometry x="220" y="20" width="190" height="540" as="geometry" />
        </mxCell>
        <mxCell id="sq8EDjVyNlzPSObER3uH-50" value="&lt;font style=&quot;font-size: 15px;&quot;&gt;srm下分公司&lt;br&gt;维度sku&lt;/font&gt;" style="shape=parallelogram;perimeter=parallelogramPerimeter;whiteSpace=wrap;html=1;fixedSize=1;fillColor=#d5e8d4;strokeColor=#82b366;" parent="sq8EDjVyNlzPSObER3uH-3" vertex="1">
          <mxGeometry x="34.999999999999545" y="50" width="120" height="60" as="geometry" />
        </mxCell>
        <mxCell id="sq8EDjVyNlzPSObER3uH-53" value="&lt;font style=&quot;font-size: 15px;&quot;&gt;sku变动&lt;br&gt;epx消息&lt;/font&gt;" style="shape=parallelogram;perimeter=parallelogramPerimeter;whiteSpace=wrap;html=1;fixedSize=1;fillColor=#d5e8d4;strokeColor=#82b366;" parent="sq8EDjVyNlzPSObER3uH-3" vertex="1">
          <mxGeometry x="35" y="190" width="105" height="50" as="geometry" />
        </mxCell>
        <mxCell id="sq8EDjVyNlzPSObER3uH-4" value="&lt;font style=&quot;font-size: 15px;&quot;&gt;商品&lt;/font&gt;" style="swimlane;startSize=20;html=1;fillColor=#ffe6cc;strokeColor=#d79b00;" parent="sq8EDjVyNlzPSObER3uH-1" vertex="1">
          <mxGeometry x="410" y="20" width="160" height="540" as="geometry" />
        </mxCell>
        <mxCell id="sq8EDjVyNlzPSObER3uH-51" value="&lt;font style=&quot;font-size: 16px;&quot;&gt;sku详情&lt;/font&gt;" style="shape=parallelogram;perimeter=parallelogramPerimeter;whiteSpace=wrap;html=1;fixedSize=1;fillColor=#ffe6cc;strokeColor=#d79b00;" parent="sq8EDjVyNlzPSObER3uH-4" vertex="1">
          <mxGeometry x="19.999999999999545" y="50" width="120" height="60" as="geometry" />
        </mxCell>
        <mxCell id="sq8EDjVyNlzPSObER3uH-55" value="&lt;font style=&quot;font-size: 15px;&quot;&gt;商品类目&lt;br&gt;变动消息&lt;/font&gt;" style="shape=parallelogram;perimeter=parallelogramPerimeter;whiteSpace=wrap;html=1;fixedSize=1;fillColor=#ffe6cc;strokeColor=#d79b00;" parent="sq8EDjVyNlzPSObER3uH-4" vertex="1">
          <mxGeometry x="27.5" y="230" width="105" height="50" as="geometry" />
        </mxCell>
        <mxCell id="sq8EDjVyNlzPSObER3uH-56" value="&lt;span style=&quot;font-size: 15px;&quot;&gt;商品型号&lt;br&gt;变动消息&lt;/span&gt;" style="shape=parallelogram;perimeter=parallelogramPerimeter;whiteSpace=wrap;html=1;fixedSize=1;fillColor=#ffe6cc;strokeColor=#d79b00;" parent="sq8EDjVyNlzPSObER3uH-4" vertex="1">
          <mxGeometry x="20" y="290" width="105" height="50" as="geometry" />
        </mxCell>
        <mxCell id="sq8EDjVyNlzPSObER3uH-26" value="&lt;font style=&quot;font-size: 15px;&quot;&gt;ES&lt;/font&gt;" style="swimlane;startSize=20;html=1;fillColor=#f8cecc;strokeColor=#b85450;" parent="sq8EDjVyNlzPSObER3uH-1" vertex="1">
          <mxGeometry x="570" y="20" width="160" height="540" as="geometry" />
        </mxCell>
        <mxCell id="sq8EDjVyNlzPSObER3uH-42" style="edgeStyle=orthogonalEdgeStyle;rounded=0;orthogonalLoop=1;jettySize=auto;html=1;entryX=0.5;entryY=0;entryDx=0;entryDy=0;" parent="sq8EDjVyNlzPSObER3uH-26" source="sq8EDjVyNlzPSObER3uH-30" target="sq8EDjVyNlzPSObER3uH-31" edge="1">
          <mxGeometry relative="1" as="geometry" />
        </mxCell>
        <mxCell id="sq8EDjVyNlzPSObER3uH-30" value="&lt;span style=&quot;font-size: 15px;&quot;&gt;建立商品sku宽表&lt;/span&gt;" style="rounded=0;whiteSpace=wrap;html=1;" parent="sq8EDjVyNlzPSObER3uH-26" vertex="1">
          <mxGeometry x="22.5" y="70" width="115" height="47.5" as="geometry" />
        </mxCell>
        <mxCell id="sq8EDjVyNlzPSObER3uH-31" value="&lt;span style=&quot;font-size: 15px;&quot;&gt;初始化数据&lt;/span&gt;" style="rounded=0;whiteSpace=wrap;html=1;" parent="sq8EDjVyNlzPSObER3uH-26" vertex="1">
          <mxGeometry x="22.5" y="130" width="115" height="47.5" as="geometry" />
        </mxCell>
        <mxCell id="sq8EDjVyNlzPSObER3uH-41" style="edgeStyle=orthogonalEdgeStyle;rounded=0;orthogonalLoop=1;jettySize=auto;html=1;exitX=0.5;exitY=1;exitDx=0;exitDy=0;entryX=0.5;entryY=0;entryDx=0;entryDy=0;" parent="sq8EDjVyNlzPSObER3uH-26" source="sq8EDjVyNlzPSObER3uH-32" target="sq8EDjVyNlzPSObER3uH-30" edge="1">
          <mxGeometry relative="1" as="geometry" />
        </mxCell>
        <mxCell id="sq8EDjVyNlzPSObER3uH-32" value="&lt;font style=&quot;font-size: 15px;&quot;&gt;开始&lt;/font&gt;" style="rounded=1;whiteSpace=wrap;html=1;" parent="sq8EDjVyNlzPSObER3uH-26" vertex="1">
          <mxGeometry x="50" y="30" width="60" height="20" as="geometry" />
        </mxCell>
        <mxCell id="sq8EDjVyNlzPSObER3uH-61" value="" style="edgeStyle=orthogonalEdgeStyle;rounded=0;orthogonalLoop=1;jettySize=auto;html=1;" parent="sq8EDjVyNlzPSObER3uH-26" source="sq8EDjVyNlzPSObER3uH-48" target="sq8EDjVyNlzPSObER3uH-60" edge="1">
          <mxGeometry relative="1" as="geometry" />
        </mxCell>
        <mxCell id="sq8EDjVyNlzPSObER3uH-48" value="&lt;font style=&quot;font-size: 15px;&quot;&gt;查询es宽表&lt;/font&gt;" style="rounded=0;whiteSpace=wrap;html=1;fillColor=#f8cecc;strokeColor=#b85450;" parent="sq8EDjVyNlzPSObER3uH-26" vertex="1">
          <mxGeometry x="27.5" y="360" width="105" height="45" as="geometry" />
        </mxCell>
        <mxCell id="sq8EDjVyNlzPSObER3uH-52" value="&lt;font style=&quot;font-size: 16px;&quot;&gt;更新es宽表&lt;/font&gt;" style="shape=process;whiteSpace=wrap;html=1;backgroundOutline=1;fillColor=#f8cecc;strokeColor=#b85450;" parent="sq8EDjVyNlzPSObER3uH-26" vertex="1">
          <mxGeometry x="22.499999999999545" y="195" width="120" height="40" as="geometry" />
        </mxCell>
        <mxCell id="sq8EDjVyNlzPSObER3uH-60" value="&lt;font style=&quot;font-size: 15px;&quot;&gt;当前分公司&lt;br&gt;sku数据&lt;/font&gt;" style="shape=parallelogram;perimeter=parallelogramPerimeter;whiteSpace=wrap;html=1;fixedSize=1;rounded=0;fillColor=#f8cecc;strokeColor=#b85450;" parent="sq8EDjVyNlzPSObER3uH-26" vertex="1">
          <mxGeometry x="20" y="450" width="120" height="60" as="geometry" />
        </mxCell>
        <mxCell id="sq8EDjVyNlzPSObER3uH-62" value="&lt;font style=&quot;font-size: 15px;&quot;&gt;开始&lt;/font&gt;" style="rounded=1;whiteSpace=wrap;html=1;fillColor=#f8cecc;strokeColor=#b85450;" parent="sq8EDjVyNlzPSObER3uH-26" vertex="1">
          <mxGeometry x="50" y="30" width="60" height="20" as="geometry" />
        </mxCell>
        <mxCell id="sq8EDjVyNlzPSObER3uH-63" value="&lt;span style=&quot;font-size: 15px;&quot;&gt;建立商品sku宽表&lt;/span&gt;" style="rounded=0;whiteSpace=wrap;html=1;fillColor=#f8cecc;strokeColor=#b85450;" parent="sq8EDjVyNlzPSObER3uH-26" vertex="1">
          <mxGeometry x="22.5" y="70" width="115" height="47.5" as="geometry" />
        </mxCell>
        <mxCell id="sq8EDjVyNlzPSObER3uH-64" value="&lt;span style=&quot;font-size: 15px;&quot;&gt;初始化数据&lt;/span&gt;" style="rounded=0;whiteSpace=wrap;html=1;fillColor=#f8cecc;strokeColor=#b85450;" parent="sq8EDjVyNlzPSObER3uH-26" vertex="1">
          <mxGeometry x="22.5" y="130" width="115" height="47.5" as="geometry" />
        </mxCell>
        <mxCell id="sq8EDjVyNlzPSObER3uH-39" style="edgeStyle=orthogonalEdgeStyle;rounded=0;orthogonalLoop=1;jettySize=auto;html=1;exitX=0;exitY=0.5;exitDx=0;exitDy=0;entryX=0.5;entryY=1;entryDx=0;entryDy=0;startArrow=classicThin;startFill=1;endArrow=none;endFill=0;" parent="sq8EDjVyNlzPSObER3uH-1" source="sq8EDjVyNlzPSObER3uH-31" target="sq8EDjVyNlzPSObER3uH-51" edge="1">
          <mxGeometry relative="1" as="geometry">
            <mxPoint x="520.0434782608693" y="119.99999999999989" as="targetPoint" />
          </mxGeometry>
        </mxCell>
        <mxCell id="sq8EDjVyNlzPSObER3uH-40" style="edgeStyle=orthogonalEdgeStyle;rounded=0;orthogonalLoop=1;jettySize=auto;html=1;exitX=0;exitY=0.5;exitDx=0;exitDy=0;entryX=0.422;entryY=1.03;entryDx=0;entryDy=0;entryPerimeter=0;startArrow=classic;startFill=1;endArrow=none;endFill=0;" parent="sq8EDjVyNlzPSObER3uH-1" source="sq8EDjVyNlzPSObER3uH-31" target="sq8EDjVyNlzPSObER3uH-50" edge="1">
          <mxGeometry relative="1" as="geometry">
            <mxPoint x="342.5" y="119.99999999999989" as="targetPoint" />
          </mxGeometry>
        </mxCell>
        <mxCell id="sq8EDjVyNlzPSObER3uH-47" style="edgeStyle=orthogonalEdgeStyle;rounded=0;orthogonalLoop=1;jettySize=auto;html=1;exitX=1;exitY=0.5;exitDx=0;exitDy=0;entryX=0;entryY=0.5;entryDx=0;entryDy=0;" parent="sq8EDjVyNlzPSObER3uH-1" source="sq8EDjVyNlzPSObER3uH-10" target="sq8EDjVyNlzPSObER3uH-48" edge="1">
          <mxGeometry relative="1" as="geometry">
            <mxPoint x="619.9999999999995" y="383" as="targetPoint" />
          </mxGeometry>
        </mxCell>
        <mxCell id="sq8EDjVyNlzPSObER3uH-49" style="edgeStyle=orthogonalEdgeStyle;rounded=0;orthogonalLoop=1;jettySize=auto;html=1;exitX=1;exitY=0.5;exitDx=0;exitDy=0;entryX=0;entryY=0.5;entryDx=0;entryDy=0;" parent="sq8EDjVyNlzPSObER3uH-1" source="sq8EDjVyNlzPSObER3uH-13" target="sq8EDjVyNlzPSObER3uH-48" edge="1">
          <mxGeometry relative="1" as="geometry">
            <mxPoint x="229.99999999999955" y="400" as="targetPoint" />
            <Array as="points">
              <mxPoint x="220" y="498" />
              <mxPoint x="220" y="402" />
            </Array>
          </mxGeometry>
        </mxCell>
        <mxCell id="sq8EDjVyNlzPSObER3uH-54" style="edgeStyle=orthogonalEdgeStyle;rounded=0;orthogonalLoop=1;jettySize=auto;html=1;exitX=1;exitY=0.5;exitDx=0;exitDy=0;entryX=0;entryY=0.5;entryDx=0;entryDy=0;" parent="sq8EDjVyNlzPSObER3uH-1" source="sq8EDjVyNlzPSObER3uH-53" target="sq8EDjVyNlzPSObER3uH-52" edge="1">
          <mxGeometry relative="1" as="geometry" />
        </mxCell>
        <mxCell id="sq8EDjVyNlzPSObER3uH-57" style="edgeStyle=orthogonalEdgeStyle;rounded=0;orthogonalLoop=1;jettySize=auto;html=1;exitX=1;exitY=0.5;exitDx=0;exitDy=0;entryX=0.5;entryY=1;entryDx=0;entryDy=0;" parent="sq8EDjVyNlzPSObER3uH-1" source="sq8EDjVyNlzPSObER3uH-55" target="sq8EDjVyNlzPSObER3uH-52" edge="1">
          <mxGeometry relative="1" as="geometry" />
        </mxCell>
        <mxCell id="sq8EDjVyNlzPSObER3uH-59" style="edgeStyle=orthogonalEdgeStyle;rounded=0;orthogonalLoop=1;jettySize=auto;html=1;exitX=1;exitY=0.5;exitDx=0;exitDy=0;entryX=0.5;entryY=1;entryDx=0;entryDy=0;" parent="sq8EDjVyNlzPSObER3uH-1" source="sq8EDjVyNlzPSObER3uH-56" target="sq8EDjVyNlzPSObER3uH-52" edge="1">
          <mxGeometry relative="1" as="geometry" />
        </mxCell>
      </root>
    </mxGraphModel>
  </diagram>
  <diagram id="YTfA6Yjon9PeiEFSLLRu" name="第 2 页">
    <mxGraphModel dx="1379" dy="774" grid="1" gridSize="10" guides="1" tooltips="1" connect="1" arrows="1" fold="1" page="1" pageScale="1" pageWidth="827" pageHeight="1169" math="0" shadow="0">
      <root>
        <mxCell id="0" />
        <mxCell id="1" parent="0" />
        <mxCell id="ebfvvqDHV_dkMEWsxQLU-1" value="供应商商品管理流程" style="swimlane;childLayout=stackLayout;resizeParent=1;resizeParentMax=0;startSize=20;html=1;" parent="1" vertex="1">
          <mxGeometry x="54.000000000000455" y="110" width="560" height="410" as="geometry" />
        </mxCell>
        <mxCell id="ebfvvqDHV_dkMEWsxQLU-2" value="&lt;font style=&quot;font-size: 12px;&quot;&gt;功能模块&lt;/font&gt;" style="swimlane;startSize=20;html=1;fillColor=#bac8d3;strokeColor=#23445d;labelBackgroundColor=none;fillStyle=auto;swimlaneFillColor=#BAC8D3;" parent="ebfvvqDHV_dkMEWsxQLU-1" vertex="1">
          <mxGeometry y="20" width="50" height="390" as="geometry" />
        </mxCell>
        <mxCell id="ebfvvqDHV_dkMEWsxQLU-3" value="&lt;font style=&quot;font-size: 17px;&quot;&gt;供应商商品详情页&lt;/font&gt;" style="text;html=1;align=center;verticalAlign=middle;whiteSpace=wrap;rounded=0;textDirection=ltr;horizontal=0;rotation=90;" parent="ebfvvqDHV_dkMEWsxQLU-2" vertex="1">
          <mxGeometry x="-67.5" y="172.5" width="185" height="25" as="geometry" />
        </mxCell>
        <mxCell id="ebfvvqDHV_dkMEWsxQLU-4" value="&lt;font style=&quot;font-size: 15px;&quot;&gt;vss&lt;/font&gt;" style="swimlane;startSize=20;html=1;fillColor=#dae8fc;strokeColor=#6c8ebf;" parent="ebfvvqDHV_dkMEWsxQLU-1" vertex="1">
          <mxGeometry x="50" y="20" width="170" height="390" as="geometry" />
        </mxCell>
        <mxCell id="naGMd9PxGvk4n0_Dnx7S-2" value="&lt;font style=&quot;font-size: 14px;&quot;&gt;聚合sku详情和审批进度&lt;/font&gt;" style="rounded=0;whiteSpace=wrap;html=1;fillColor=#dae8fc;strokeColor=#6c8ebf;" parent="ebfvvqDHV_dkMEWsxQLU-4" vertex="1">
          <mxGeometry x="22.5" y="261.25" width="107.5" height="47.5" as="geometry" />
        </mxCell>
        <mxCell id="ebfvvqDHV_dkMEWsxQLU-7" value="&lt;font style=&quot;font-size: 15px;&quot;&gt;srm&lt;/font&gt;" style="swimlane;startSize=20;html=1;fillColor=#d5e8d4;strokeColor=#82b366;" parent="ebfvvqDHV_dkMEWsxQLU-1" vertex="1">
          <mxGeometry x="220" y="20" width="180" height="390" as="geometry" />
        </mxCell>
        <mxCell id="naGMd9PxGvk4n0_Dnx7S-1" value="&lt;span style=&quot;font-size: 15px;&quot;&gt;查看sku详情&lt;/span&gt;" style="rounded=0;whiteSpace=wrap;html=1;fillColor=#dae8fc;strokeColor=#6c8ebf;" parent="ebfvvqDHV_dkMEWsxQLU-7" vertex="1">
          <mxGeometry x="-147.5" y="65" width="105" height="35" as="geometry" />
        </mxCell>
        <mxCell id="-2qZ1yB83SiF693fp_qh-2" value="" style="edgeStyle=orthogonalEdgeStyle;rounded=0;orthogonalLoop=1;jettySize=auto;html=1;" parent="ebfvvqDHV_dkMEWsxQLU-7" source="naGMd9PxGvk4n0_Dnx7S-3" target="-2qZ1yB83SiF693fp_qh-1" edge="1">
          <mxGeometry relative="1" as="geometry" />
        </mxCell>
        <mxCell id="naGMd9PxGvk4n0_Dnx7S-3" value="&lt;span style=&quot;font-size: 15px;&quot;&gt;查询sku基本信息&lt;/span&gt;" style="rounded=0;whiteSpace=wrap;html=1;fillColor=#d5e8d4;strokeColor=#82b366;" parent="ebfvvqDHV_dkMEWsxQLU-7" vertex="1">
          <mxGeometry x="32.5" y="65" width="105" height="35" as="geometry" />
        </mxCell>
        <mxCell id="naGMd9PxGvk4n0_Dnx7S-4" style="edgeStyle=orthogonalEdgeStyle;rounded=0;orthogonalLoop=1;jettySize=auto;html=1;exitX=1;exitY=0.5;exitDx=0;exitDy=0;" parent="ebfvvqDHV_dkMEWsxQLU-7" source="naGMd9PxGvk4n0_Dnx7S-1" target="naGMd9PxGvk4n0_Dnx7S-3" edge="1">
          <mxGeometry relative="1" as="geometry" />
        </mxCell>
        <mxCell id="-2qZ1yB83SiF693fp_qh-4" value="" style="edgeStyle=orthogonalEdgeStyle;rounded=0;orthogonalLoop=1;jettySize=auto;html=1;" parent="ebfvvqDHV_dkMEWsxQLU-7" source="-2qZ1yB83SiF693fp_qh-1" target="-2qZ1yB83SiF693fp_qh-3" edge="1">
          <mxGeometry relative="1" as="geometry" />
        </mxCell>
        <mxCell id="-2qZ1yB83SiF693fp_qh-1" value="&lt;font style=&quot;font-size: 15px;&quot;&gt;查询结算/价格信息&lt;/font&gt;" style="whiteSpace=wrap;html=1;rounded=0;fillColor=#d5e8d4;strokeColor=#82b366;" parent="ebfvvqDHV_dkMEWsxQLU-7" vertex="1">
          <mxGeometry x="27.5" y="135" width="115" height="37.5" as="geometry" />
        </mxCell>
        <mxCell id="-2qZ1yB83SiF693fp_qh-6" value="" style="edgeStyle=orthogonalEdgeStyle;rounded=0;orthogonalLoop=1;jettySize=auto;html=1;" parent="ebfvvqDHV_dkMEWsxQLU-7" source="-2qZ1yB83SiF693fp_qh-3" target="-2qZ1yB83SiF693fp_qh-5" edge="1">
          <mxGeometry relative="1" as="geometry" />
        </mxCell>
        <mxCell id="-2qZ1yB83SiF693fp_qh-3" value="&lt;font style=&quot;font-size: 15px;&quot;&gt;订货信息&lt;/font&gt;" style="whiteSpace=wrap;html=1;rounded=0;fillColor=#d5e8d4;strokeColor=#82b366;" parent="ebfvvqDHV_dkMEWsxQLU-7" vertex="1">
          <mxGeometry x="32.5" y="205" width="105" height="33.75" as="geometry" />
        </mxCell>
        <mxCell id="-2qZ1yB83SiF693fp_qh-5" value="&lt;font style=&quot;font-size: 15px;&quot;&gt;聚合数据&lt;/font&gt;" style="shape=parallelogram;perimeter=parallelogramPerimeter;whiteSpace=wrap;html=1;fixedSize=1;rounded=0;fillColor=#d5e8d4;strokeColor=#82b366;" parent="ebfvvqDHV_dkMEWsxQLU-7" vertex="1">
          <mxGeometry x="27.5" y="265" width="115" height="40" as="geometry" />
        </mxCell>
        <mxCell id="-2qZ1yB83SiF693fp_qh-7" style="edgeStyle=orthogonalEdgeStyle;rounded=0;orthogonalLoop=1;jettySize=auto;html=1;exitX=0;exitY=0.5;exitDx=0;exitDy=0;entryX=1;entryY=0.5;entryDx=0;entryDy=0;" parent="ebfvvqDHV_dkMEWsxQLU-1" source="-2qZ1yB83SiF693fp_qh-5" target="naGMd9PxGvk4n0_Dnx7S-2" edge="1">
          <mxGeometry relative="1" as="geometry" />
        </mxCell>
        <mxCell id="-2qZ1yB83SiF693fp_qh-13" style="edgeStyle=orthogonalEdgeStyle;rounded=0;orthogonalLoop=1;jettySize=auto;html=1;exitX=0.5;exitY=1;exitDx=0;exitDy=0;entryX=1;entryY=0.5;entryDx=0;entryDy=0;" parent="ebfvvqDHV_dkMEWsxQLU-1" source="-2qZ1yB83SiF693fp_qh-11" target="naGMd9PxGvk4n0_Dnx7S-2" edge="1">
          <mxGeometry relative="1" as="geometry">
            <Array as="points">
              <mxPoint x="480" y="345" />
              <mxPoint x="216" y="345" />
              <mxPoint x="216" y="305" />
            </Array>
          </mxGeometry>
        </mxCell>
        <mxCell id="ebfvvqDHV_dkMEWsxQLU-10" value="&lt;font style=&quot;font-size: 15px;&quot;&gt;商品&lt;/font&gt;" style="swimlane;startSize=20;html=1;fillColor=#ffe6cc;strokeColor=#d79b00;" parent="ebfvvqDHV_dkMEWsxQLU-1" vertex="1">
          <mxGeometry x="400" y="20" width="160" height="390" as="geometry" />
        </mxCell>
        <mxCell id="-2qZ1yB83SiF693fp_qh-12" style="edgeStyle=orthogonalEdgeStyle;rounded=0;orthogonalLoop=1;jettySize=auto;html=1;" parent="ebfvvqDHV_dkMEWsxQLU-10" source="-2qZ1yB83SiF693fp_qh-8" target="-2qZ1yB83SiF693fp_qh-11" edge="1">
          <mxGeometry relative="1" as="geometry" />
        </mxCell>
        <mxCell id="-2qZ1yB83SiF693fp_qh-8" value="&lt;span style=&quot;font-size: 15px;&quot;&gt;查询审批进度&lt;/span&gt;" style="rounded=0;whiteSpace=wrap;html=1;fillColor=#ffe6cc;strokeColor=#d79b00;" parent="ebfvvqDHV_dkMEWsxQLU-10" vertex="1">
          <mxGeometry x="27.5" y="65" width="105" height="35" as="geometry" />
        </mxCell>
        <mxCell id="-2qZ1yB83SiF693fp_qh-11" value="&lt;font style=&quot;font-size: 15px;&quot;&gt;sku审批记录&lt;/font&gt;" style="shape=parallelogram;perimeter=parallelogramPerimeter;whiteSpace=wrap;html=1;fixedSize=1;fillColor=#ffe6cc;strokeColor=#d79b00;" parent="ebfvvqDHV_dkMEWsxQLU-10" vertex="1">
          <mxGeometry x="25" y="265" width="110" height="40" as="geometry" />
        </mxCell>
      </root>
    </mxGraphModel>
  </diagram>
  <diagram id="WGQXnyQZsblgMuz0DYuH" name="第 3 页">
    <mxGraphModel dx="1379" dy="774" grid="1" gridSize="10" guides="1" tooltips="1" connect="1" arrows="1" fold="1" page="1" pageScale="1" pageWidth="827" pageHeight="1169" math="0" shadow="0">
      <root>
        <mxCell id="0" />
        <mxCell id="1" parent="0" />
        <mxCell id="L1rz4W0nAsE0-dqOmTM0-1" value="供应商商品管理流程" style="swimlane;childLayout=stackLayout;resizeParent=1;resizeParentMax=0;startSize=20;html=1;" parent="1" vertex="1">
          <mxGeometry x="140.00000000000045" y="110" width="720" height="675" as="geometry" />
        </mxCell>
        <mxCell id="L1rz4W0nAsE0-dqOmTM0-2" value="&lt;font style=&quot;font-size: 12px;&quot;&gt;功能模块&lt;/font&gt;" style="swimlane;startSize=20;html=1;fillColor=#bac8d3;strokeColor=#23445d;labelBackgroundColor=none;fillStyle=auto;swimlaneFillColor=#BAC8D3;" parent="L1rz4W0nAsE0-dqOmTM0-1" vertex="1">
          <mxGeometry y="20" width="50" height="655" as="geometry" />
        </mxCell>
        <mxCell id="L1rz4W0nAsE0-dqOmTM0-3" value="&lt;font style=&quot;font-size: 17px;&quot;&gt;供应商商品批量审核页&lt;/font&gt;" style="text;html=1;align=center;verticalAlign=middle;whiteSpace=wrap;rounded=0;textDirection=ltr;horizontal=0;rotation=90;" parent="L1rz4W0nAsE0-dqOmTM0-2" vertex="1">
          <mxGeometry x="-67.5" y="172.5" width="185" height="25" as="geometry" />
        </mxCell>
        <mxCell id="L1rz4W0nAsE0-dqOmTM0-4" value="&lt;font style=&quot;font-size: 15px;&quot;&gt;vss&lt;/font&gt;" style="swimlane;startSize=20;html=1;fillColor=#dae8fc;strokeColor=#6c8ebf;" parent="L1rz4W0nAsE0-dqOmTM0-1" vertex="1">
          <mxGeometry x="50" y="20" width="170" height="655" as="geometry" />
        </mxCell>
        <mxCell id="WOx_tu_ca6Z-1kbt1XX_-9" style="edgeStyle=orthogonalEdgeStyle;rounded=0;orthogonalLoop=1;jettySize=auto;html=1;exitX=0.5;exitY=1;exitDx=0;exitDy=0;entryX=0.5;entryY=0;entryDx=0;entryDy=0;" parent="L1rz4W0nAsE0-dqOmTM0-4" source="L1rz4W0nAsE0-dqOmTM0-5" target="WOx_tu_ca6Z-1kbt1XX_-5" edge="1">
          <mxGeometry relative="1" as="geometry" />
        </mxCell>
        <mxCell id="L1rz4W0nAsE0-dqOmTM0-5" value="&lt;font style=&quot;font-size: 15px;&quot;&gt;下载excel模板&lt;/font&gt;" style="rounded=0;whiteSpace=wrap;html=1;fillColor=#dae8fc;strokeColor=#6c8ebf;" parent="L1rz4W0nAsE0-dqOmTM0-4" vertex="1">
          <mxGeometry x="25.75" y="240" width="107.25" height="27.5" as="geometry" />
        </mxCell>
        <mxCell id="WOx_tu_ca6Z-1kbt1XX_-2" value="" style="edgeStyle=orthogonalEdgeStyle;rounded=0;orthogonalLoop=1;jettySize=auto;html=1;" parent="L1rz4W0nAsE0-dqOmTM0-4" source="iLohxSvAw32yzan7pHb4-1" target="WOx_tu_ca6Z-1kbt1XX_-1" edge="1">
          <mxGeometry relative="1" as="geometry" />
        </mxCell>
        <mxCell id="iLohxSvAw32yzan7pHb4-1" value="&lt;font style=&quot;font-size: 15px;&quot;&gt;查询商品列表&lt;/font&gt;" style="whiteSpace=wrap;html=1;fillColor=#dae8fc;strokeColor=#6c8ebf;rounded=0;" parent="L1rz4W0nAsE0-dqOmTM0-4" vertex="1">
          <mxGeometry x="24" y="80" width="105" height="32.5" as="geometry" />
        </mxCell>
        <mxCell id="5GHaFXEo9kJfshBP6Sjv-4" style="edgeStyle=orthogonalEdgeStyle;rounded=0;orthogonalLoop=1;jettySize=auto;html=1;exitX=0.5;exitY=1;exitDx=0;exitDy=0;entryX=0.5;entryY=0;entryDx=0;entryDy=0;" parent="L1rz4W0nAsE0-dqOmTM0-4" source="L1rz4W0nAsE0-dqOmTM0-7" target="iLohxSvAw32yzan7pHb4-1" edge="1">
          <mxGeometry relative="1" as="geometry" />
        </mxCell>
        <mxCell id="L1rz4W0nAsE0-dqOmTM0-7" value="&lt;span style=&quot;font-size: 15px;&quot;&gt;添加商品&lt;/span&gt;" style="rounded=0;whiteSpace=wrap;html=1;fillColor=#dae8fc;strokeColor=#6c8ebf;" parent="L1rz4W0nAsE0-dqOmTM0-4" vertex="1">
          <mxGeometry x="23.75" y="30" width="105" height="35" as="geometry" />
        </mxCell>
        <mxCell id="WOx_tu_ca6Z-1kbt1XX_-1" value="&lt;font style=&quot;font-size: 15px;&quot;&gt;添加商品页展示&lt;/font&gt;" style="whiteSpace=wrap;html=1;fillColor=#dae8fc;strokeColor=#6c8ebf;rounded=0;" parent="L1rz4W0nAsE0-dqOmTM0-4" vertex="1">
          <mxGeometry x="19.5" y="150" width="113.5" height="31.25" as="geometry" />
        </mxCell>
        <mxCell id="WOx_tu_ca6Z-1kbt1XX_-5" value="&lt;font style=&quot;font-size: 15px;&quot;&gt;生成excel模板&lt;/font&gt;" style="whiteSpace=wrap;html=1;fillColor=#dae8fc;strokeColor=#6c8ebf;rounded=0;" parent="L1rz4W0nAsE0-dqOmTM0-4" vertex="1">
          <mxGeometry x="27.75" y="288" width="105.25" height="30" as="geometry" />
        </mxCell>
        <mxCell id="WOx_tu_ca6Z-1kbt1XX_-16" style="edgeStyle=orthogonalEdgeStyle;rounded=0;orthogonalLoop=1;jettySize=auto;html=1;exitX=0.5;exitY=1;exitDx=0;exitDy=0;entryX=0.5;entryY=0;entryDx=0;entryDy=0;" parent="L1rz4W0nAsE0-dqOmTM0-4" source="WOx_tu_ca6Z-1kbt1XX_-10" target="WOx_tu_ca6Z-1kbt1XX_-11" edge="1">
          <mxGeometry relative="1" as="geometry" />
        </mxCell>
        <mxCell id="WOx_tu_ca6Z-1kbt1XX_-10" value="&lt;font style=&quot;font-size: 15px;&quot;&gt;上传excel模板&lt;/font&gt;" style="rounded=0;whiteSpace=wrap;html=1;fillColor=#dae8fc;strokeColor=#6c8ebf;" parent="L1rz4W0nAsE0-dqOmTM0-4" vertex="1">
          <mxGeometry x="25.75" y="350" width="107.25" height="27.5" as="geometry" />
        </mxCell>
        <mxCell id="WOx_tu_ca6Z-1kbt1XX_-15" style="edgeStyle=orthogonalEdgeStyle;rounded=0;orthogonalLoop=1;jettySize=auto;html=1;exitX=0.5;exitY=1;exitDx=0;exitDy=0;entryX=0.5;entryY=0;entryDx=0;entryDy=0;" parent="L1rz4W0nAsE0-dqOmTM0-4" source="WOx_tu_ca6Z-1kbt1XX_-11" target="WOx_tu_ca6Z-1kbt1XX_-17" edge="1">
          <mxGeometry relative="1" as="geometry">
            <mxPoint x="81.10344827586164" y="450" as="targetPoint" />
          </mxGeometry>
        </mxCell>
        <mxCell id="WOx_tu_ca6Z-1kbt1XX_-11" value="&lt;font style=&quot;font-size: 15px;&quot;&gt;数据校验&lt;/font&gt;" style="whiteSpace=wrap;html=1;fillColor=#dae8fc;strokeColor=#6c8ebf;rounded=0;" parent="L1rz4W0nAsE0-dqOmTM0-4" vertex="1">
          <mxGeometry x="25.75" y="400" width="110.63" height="28.75" as="geometry" />
        </mxCell>
        <mxCell id="WOx_tu_ca6Z-1kbt1XX_-26" value="" style="edgeStyle=orthogonalEdgeStyle;rounded=0;orthogonalLoop=1;jettySize=auto;html=1;" parent="L1rz4W0nAsE0-dqOmTM0-4" source="WOx_tu_ca6Z-1kbt1XX_-17" target="WOx_tu_ca6Z-1kbt1XX_-25" edge="1">
          <mxGeometry relative="1" as="geometry" />
        </mxCell>
        <mxCell id="WOx_tu_ca6Z-1kbt1XX_-17" value="&lt;font style=&quot;font-size: 15px;&quot;&gt;拆分审批单&lt;/font&gt;" style="whiteSpace=wrap;html=1;fillColor=#dae8fc;strokeColor=#6c8ebf;rounded=0;" parent="L1rz4W0nAsE0-dqOmTM0-4" vertex="1">
          <mxGeometry x="25.91" y="455" width="108.93" height="30" as="geometry" />
        </mxCell>
        <mxCell id="WOx_tu_ca6Z-1kbt1XX_-29" style="edgeStyle=orthogonalEdgeStyle;rounded=0;orthogonalLoop=1;jettySize=auto;html=1;exitX=0.5;exitY=1;exitDx=0;exitDy=0;entryX=0.5;entryY=0;entryDx=0;entryDy=0;" parent="L1rz4W0nAsE0-dqOmTM0-4" source="WOx_tu_ca6Z-1kbt1XX_-25" target="WOx_tu_ca6Z-1kbt1XX_-28" edge="1">
          <mxGeometry relative="1" as="geometry" />
        </mxCell>
        <mxCell id="WOx_tu_ca6Z-1kbt1XX_-25" value="&lt;font style=&quot;font-size: 15px;&quot;&gt;拆分后审批单&lt;/font&gt;" style="shape=parallelogram;perimeter=parallelogramPerimeter;whiteSpace=wrap;html=1;fixedSize=1;fillColor=#dae8fc;strokeColor=#6c8ebf;rounded=0;" parent="L1rz4W0nAsE0-dqOmTM0-4" vertex="1">
          <mxGeometry x="20.900000000000002" y="510" width="118.94" height="35" as="geometry" />
        </mxCell>
        <mxCell id="WOx_tu_ca6Z-1kbt1XX_-28" value="&lt;font style=&quot;font-size: 15px;&quot;&gt;提交审批&lt;/font&gt;" style="whiteSpace=wrap;html=1;fillColor=#dae8fc;strokeColor=#6c8ebf;rounded=0;" parent="L1rz4W0nAsE0-dqOmTM0-4" vertex="1">
          <mxGeometry x="27.750000000000007" y="582.5" width="99.44" height="20" as="geometry" />
        </mxCell>
        <mxCell id="L1rz4W0nAsE0-dqOmTM0-6" value="&lt;font style=&quot;font-size: 15px;&quot;&gt;srm&lt;/font&gt;" style="swimlane;startSize=20;html=1;fillColor=#d5e8d4;strokeColor=#82b366;" parent="L1rz4W0nAsE0-dqOmTM0-1" vertex="1">
          <mxGeometry x="220" y="20" width="180" height="655" as="geometry" />
        </mxCell>
        <mxCell id="L1rz4W0nAsE0-dqOmTM0-18" value="&lt;font style=&quot;font-size: 15px;&quot;&gt;商品&lt;/font&gt;" style="swimlane;startSize=20;html=1;fillColor=#ffe6cc;strokeColor=#d79b00;" parent="L1rz4W0nAsE0-dqOmTM0-1" vertex="1">
          <mxGeometry x="400" y="20" width="160" height="655" as="geometry" />
        </mxCell>
        <mxCell id="WOx_tu_ca6Z-1kbt1XX_-21" value="" style="edgeStyle=orthogonalEdgeStyle;rounded=0;orthogonalLoop=1;jettySize=auto;html=1;" parent="L1rz4W0nAsE0-dqOmTM0-18" source="WOx_tu_ca6Z-1kbt1XX_-19" target="WOx_tu_ca6Z-1kbt1XX_-20" edge="1">
          <mxGeometry relative="1" as="geometry" />
        </mxCell>
        <mxCell id="WOx_tu_ca6Z-1kbt1XX_-19" value="&lt;font style=&quot;font-size: 15px;&quot;&gt;sku数据&lt;/font&gt;" style="shape=parallelogram;perimeter=parallelogramPerimeter;whiteSpace=wrap;html=1;fixedSize=1;fillColor=#ffe6cc;strokeColor=#d79b00;" parent="L1rz4W0nAsE0-dqOmTM0-18" vertex="1">
          <mxGeometry x="20" y="330" width="120" height="30" as="geometry" />
        </mxCell>
        <mxCell id="WOx_tu_ca6Z-1kbt1XX_-20" value="&lt;font style=&quot;font-size: 15px;&quot;&gt;拆分sku&lt;/font&gt;" style="whiteSpace=wrap;html=1;fillColor=#ffe6cc;strokeColor=#d79b00;" parent="L1rz4W0nAsE0-dqOmTM0-18" vertex="1">
          <mxGeometry x="25" y="390" width="110" height="27" as="geometry" />
        </mxCell>
        <mxCell id="WOx_tu_ca6Z-1kbt1XX_-30" value="&lt;font style=&quot;font-size: 15px;&quot;&gt;商品审核流程&lt;/font&gt;" style="rounded=0;whiteSpace=wrap;html=1;fillColor=#ffe6cc;strokeColor=#d79b00;" parent="L1rz4W0nAsE0-dqOmTM0-18" vertex="1">
          <mxGeometry x="50" y="540" width="60" height="105" as="geometry" />
        </mxCell>
        <mxCell id="iLohxSvAw32yzan7pHb4-3" value="&lt;span style=&quot;font-size: 15px;&quot;&gt;ES&lt;/span&gt;" style="swimlane;startSize=20;html=1;fillColor=#f8cecc;strokeColor=#b85450;" parent="L1rz4W0nAsE0-dqOmTM0-1" vertex="1">
          <mxGeometry x="560" y="20" width="160" height="655" as="geometry" />
        </mxCell>
        <mxCell id="5GHaFXEo9kJfshBP6Sjv-6" style="edgeStyle=orthogonalEdgeStyle;rounded=0;orthogonalLoop=1;jettySize=auto;html=1;exitX=0.5;exitY=1;exitDx=0;exitDy=0;entryX=0.5;entryY=0;entryDx=0;entryDy=0;" parent="iLohxSvAw32yzan7pHb4-3" source="5GHaFXEo9kJfshBP6Sjv-2" target="5GHaFXEo9kJfshBP6Sjv-3" edge="1">
          <mxGeometry relative="1" as="geometry" />
        </mxCell>
        <mxCell id="5GHaFXEo9kJfshBP6Sjv-2" value="&lt;font style=&quot;font-size: 15px;&quot;&gt;查询es宽表&lt;/font&gt;" style="rounded=0;whiteSpace=wrap;html=1;fillColor=#f8cecc;strokeColor=#b85450;" parent="iLohxSvAw32yzan7pHb4-3" vertex="1">
          <mxGeometry x="28.5" y="79" width="102.5" height="35" as="geometry" />
        </mxCell>
        <mxCell id="5GHaFXEo9kJfshBP6Sjv-3" value="&lt;font style=&quot;font-size: 15px;&quot;&gt;当前分公司&lt;br&gt;sku数据&lt;/font&gt;" style="shape=parallelogram;perimeter=parallelogramPerimeter;whiteSpace=wrap;html=1;fixedSize=1;rounded=0;fillColor=#f8cecc;strokeColor=#b85450;" parent="iLohxSvAw32yzan7pHb4-3" vertex="1">
          <mxGeometry x="20" y="136" width="120" height="60" as="geometry" />
        </mxCell>
        <mxCell id="5GHaFXEo9kJfshBP6Sjv-5" style="edgeStyle=orthogonalEdgeStyle;rounded=0;orthogonalLoop=1;jettySize=auto;html=1;exitX=1;exitY=0.5;exitDx=0;exitDy=0;" parent="L1rz4W0nAsE0-dqOmTM0-1" source="iLohxSvAw32yzan7pHb4-1" target="5GHaFXEo9kJfshBP6Sjv-2" edge="1">
          <mxGeometry relative="1" as="geometry" />
        </mxCell>
        <mxCell id="WOx_tu_ca6Z-1kbt1XX_-3" style="edgeStyle=orthogonalEdgeStyle;rounded=0;orthogonalLoop=1;jettySize=auto;html=1;exitX=0;exitY=0.5;exitDx=0;exitDy=0;entryX=1;entryY=0.5;entryDx=0;entryDy=0;" parent="L1rz4W0nAsE0-dqOmTM0-1" source="5GHaFXEo9kJfshBP6Sjv-3" target="WOx_tu_ca6Z-1kbt1XX_-1" edge="1">
          <mxGeometry relative="1" as="geometry" />
        </mxCell>
        <mxCell id="WOx_tu_ca6Z-1kbt1XX_-4" style="edgeStyle=orthogonalEdgeStyle;rounded=0;orthogonalLoop=1;jettySize=auto;html=1;exitX=1;exitY=0.5;exitDx=0;exitDy=0;entryX=0;entryY=0.5;entryDx=0;entryDy=0;" parent="L1rz4W0nAsE0-dqOmTM0-1" source="L1rz4W0nAsE0-dqOmTM0-5" target="5GHaFXEo9kJfshBP6Sjv-2" edge="1">
          <mxGeometry relative="1" as="geometry">
            <Array as="points">
              <mxPoint x="400" y="274" />
              <mxPoint x="400" y="116" />
            </Array>
          </mxGeometry>
        </mxCell>
        <mxCell id="WOx_tu_ca6Z-1kbt1XX_-7" style="edgeStyle=orthogonalEdgeStyle;rounded=0;orthogonalLoop=1;jettySize=auto;html=1;exitX=0.5;exitY=1;exitDx=0;exitDy=0;entryX=1;entryY=0.5;entryDx=0;entryDy=0;" parent="L1rz4W0nAsE0-dqOmTM0-1" source="5GHaFXEo9kJfshBP6Sjv-3" target="WOx_tu_ca6Z-1kbt1XX_-5" edge="1">
          <mxGeometry relative="1" as="geometry" />
        </mxCell>
        <mxCell id="WOx_tu_ca6Z-1kbt1XX_-22" style="edgeStyle=orthogonalEdgeStyle;rounded=0;orthogonalLoop=1;jettySize=auto;html=1;exitX=1;exitY=0.5;exitDx=0;exitDy=0;entryX=0;entryY=0.5;entryDx=0;entryDy=0;" parent="L1rz4W0nAsE0-dqOmTM0-1" source="WOx_tu_ca6Z-1kbt1XX_-17" target="WOx_tu_ca6Z-1kbt1XX_-19" edge="1">
          <mxGeometry relative="1" as="geometry">
            <mxPoint x="419.99999999999955" y="360" as="targetPoint" />
            <Array as="points">
              <mxPoint x="220" y="490" />
              <mxPoint x="220" y="365" />
            </Array>
          </mxGeometry>
        </mxCell>
        <mxCell id="WOx_tu_ca6Z-1kbt1XX_-27" style="edgeStyle=orthogonalEdgeStyle;rounded=0;orthogonalLoop=1;jettySize=auto;html=1;entryX=0.903;entryY=0.577;entryDx=0;entryDy=0;entryPerimeter=0;" parent="L1rz4W0nAsE0-dqOmTM0-1" source="WOx_tu_ca6Z-1kbt1XX_-20" target="WOx_tu_ca6Z-1kbt1XX_-25" edge="1">
          <mxGeometry relative="1" as="geometry">
            <Array as="points">
              <mxPoint x="480" y="550" />
            </Array>
          </mxGeometry>
        </mxCell>
        <mxCell id="WOx_tu_ca6Z-1kbt1XX_-31" style="edgeStyle=orthogonalEdgeStyle;rounded=0;orthogonalLoop=1;jettySize=auto;html=1;exitX=1;exitY=0.5;exitDx=0;exitDy=0;entryX=0;entryY=0.5;entryDx=0;entryDy=0;" parent="L1rz4W0nAsE0-dqOmTM0-1" source="WOx_tu_ca6Z-1kbt1XX_-28" target="WOx_tu_ca6Z-1kbt1XX_-30" edge="1">
          <mxGeometry relative="1" as="geometry" />
        </mxCell>
      </root>
    </mxGraphModel>
  </diagram>
  <diagram id="980-HWMocLkoYav158CG" name="第 4 页">
    <mxGraphModel dx="1379" dy="774" grid="1" gridSize="10" guides="1" tooltips="1" connect="1" arrows="1" fold="1" page="1" pageScale="1" pageWidth="827" pageHeight="1169" math="0" shadow="0">
      <root>
        <mxCell id="0" />
        <mxCell id="1" parent="0" />
        <mxCell id="d71gbB_h1juPHFCVinGQ-1" value="供应商商品管理流程" style="swimlane;childLayout=stackLayout;resizeParent=1;resizeParentMax=0;startSize=20;html=1;" parent="1" vertex="1">
          <mxGeometry x="140.00000000000045" y="110" width="540" height="620" as="geometry" />
        </mxCell>
        <mxCell id="d71gbB_h1juPHFCVinGQ-2" value="&lt;font style=&quot;font-size: 12px;&quot;&gt;功能模块&lt;/font&gt;" style="swimlane;startSize=20;html=1;fillColor=#bac8d3;strokeColor=#23445d;labelBackgroundColor=none;fillStyle=auto;swimlaneFillColor=#BAC8D3;" parent="d71gbB_h1juPHFCVinGQ-1" vertex="1">
          <mxGeometry y="20" width="50" height="600" as="geometry" />
        </mxCell>
        <mxCell id="d71gbB_h1juPHFCVinGQ-3" value="&lt;font style=&quot;font-size: 17px;&quot;&gt;供应商商品审核进度页&lt;/font&gt;" style="text;html=1;align=center;verticalAlign=middle;whiteSpace=wrap;rounded=0;textDirection=ltr;horizontal=0;rotation=90;" parent="d71gbB_h1juPHFCVinGQ-2" vertex="1">
          <mxGeometry x="-67.5" y="250" width="185" height="25" as="geometry" />
        </mxCell>
        <mxCell id="d71gbB_h1juPHFCVinGQ-48" style="edgeStyle=orthogonalEdgeStyle;rounded=0;orthogonalLoop=1;jettySize=auto;html=1;exitX=1;exitY=0.5;exitDx=0;exitDy=0;entryX=0.012;entryY=0.172;entryDx=0;entryDy=0;entryPerimeter=0;" parent="d71gbB_h1juPHFCVinGQ-1" source="d71gbB_h1juPHFCVinGQ-46" target="XH0CC4QkOKa2SrGTWgls-26" edge="1">
          <mxGeometry relative="1" as="geometry">
            <mxPoint x="419.99999999999955" y="268" as="targetPoint" />
          </mxGeometry>
        </mxCell>
        <mxCell id="GgHLMVIgbhOIDCqglWga-12" style="edgeStyle=orthogonalEdgeStyle;rounded=0;orthogonalLoop=1;jettySize=auto;html=1;exitX=0;exitY=0.75;exitDx=0;exitDy=0;" parent="d71gbB_h1juPHFCVinGQ-1" source="XH0CC4QkOKa2SrGTWgls-26" target="d71gbB_h1juPHFCVinGQ-49" edge="1">
          <mxGeometry relative="1" as="geometry" />
        </mxCell>
        <mxCell id="d71gbB_h1juPHFCVinGQ-4" value="&lt;font style=&quot;font-size: 15px;&quot;&gt;vss&lt;/font&gt;" style="swimlane;startSize=20;html=1;fillColor=#dae8fc;strokeColor=#6c8ebf;" parent="d71gbB_h1juPHFCVinGQ-1" vertex="1">
          <mxGeometry x="50" y="20" width="170" height="600" as="geometry" />
        </mxCell>
        <mxCell id="d71gbB_h1juPHFCVinGQ-41" style="edgeStyle=orthogonalEdgeStyle;rounded=0;orthogonalLoop=1;jettySize=auto;html=1;exitX=0.5;exitY=1;exitDx=0;exitDy=0;entryX=0.5;entryY=0;entryDx=0;entryDy=0;" parent="d71gbB_h1juPHFCVinGQ-4" source="d71gbB_h1juPHFCVinGQ-39" target="d71gbB_h1juPHFCVinGQ-40" edge="1">
          <mxGeometry relative="1" as="geometry" />
        </mxCell>
        <mxCell id="d71gbB_h1juPHFCVinGQ-39" value="&lt;font style=&quot;font-size: 15px;&quot;&gt;开始&lt;/font&gt;" style="rounded=1;whiteSpace=wrap;html=1;fillColor=#dae8fc;strokeColor=#6c8ebf;" parent="d71gbB_h1juPHFCVinGQ-4" vertex="1">
          <mxGeometry x="41" y="30" width="75" height="30" as="geometry" />
        </mxCell>
        <mxCell id="d71gbB_h1juPHFCVinGQ-40" value="&lt;font style=&quot;font-size: 16px;&quot;&gt;查询审批单列表&lt;/font&gt;" style="rounded=0;whiteSpace=wrap;html=1;fillColor=#dae8fc;strokeColor=#6c8ebf;" parent="d71gbB_h1juPHFCVinGQ-4" vertex="1">
          <mxGeometry x="19.5" y="80" width="115" height="40" as="geometry" />
        </mxCell>
        <mxCell id="d71gbB_h1juPHFCVinGQ-44" value="&lt;font style=&quot;font-size: 15px;&quot;&gt;前端审核进度列表页渲染&lt;/font&gt;" style="rounded=0;whiteSpace=wrap;html=1;fillColor=#dae8fc;strokeColor=#6c8ebf;" parent="d71gbB_h1juPHFCVinGQ-4" vertex="1">
          <mxGeometry x="17" y="145" width="112" height="40" as="geometry" />
        </mxCell>
        <mxCell id="d71gbB_h1juPHFCVinGQ-46" value="&lt;font style=&quot;font-size: 16px;&quot;&gt;查看审批单详情&lt;/font&gt;" style="rounded=0;whiteSpace=wrap;html=1;fillColor=#dae8fc;strokeColor=#6c8ebf;" parent="d71gbB_h1juPHFCVinGQ-4" vertex="1">
          <mxGeometry x="16" y="230" width="124" height="40" as="geometry" />
        </mxCell>
        <mxCell id="d71gbB_h1juPHFCVinGQ-49" value="&lt;font style=&quot;font-size: 15px;&quot;&gt;前端审核单详情&lt;/font&gt;" style="rounded=0;whiteSpace=wrap;html=1;fillColor=#dae8fc;strokeColor=#6c8ebf;" parent="d71gbB_h1juPHFCVinGQ-4" vertex="1">
          <mxGeometry x="22" y="300.5" width="112" height="40" as="geometry" />
        </mxCell>
        <mxCell id="d71gbB_h1juPHFCVinGQ-42" style="edgeStyle=orthogonalEdgeStyle;rounded=0;orthogonalLoop=1;jettySize=auto;html=1;exitX=1;exitY=0.5;exitDx=0;exitDy=0;" parent="d71gbB_h1juPHFCVinGQ-1" source="d71gbB_h1juPHFCVinGQ-40" edge="1">
          <mxGeometry relative="1" as="geometry">
            <mxPoint x="430.99999999999955" y="120" as="targetPoint" />
          </mxGeometry>
        </mxCell>
        <mxCell id="GgHLMVIgbhOIDCqglWga-10" style="edgeStyle=orthogonalEdgeStyle;rounded=0;orthogonalLoop=1;jettySize=auto;html=1;exitX=0;exitY=0.75;exitDx=0;exitDy=0;entryX=1;entryY=0.5;entryDx=0;entryDy=0;" parent="d71gbB_h1juPHFCVinGQ-1" source="XH0CC4QkOKa2SrGTWgls-25" target="d71gbB_h1juPHFCVinGQ-44" edge="1">
          <mxGeometry relative="1" as="geometry">
            <Array as="points">
              <mxPoint x="431" y="185" />
            </Array>
          </mxGeometry>
        </mxCell>
        <mxCell id="d71gbB_h1juPHFCVinGQ-23" value="&lt;font style=&quot;font-size: 15px;&quot;&gt;srm&lt;/font&gt;" style="swimlane;startSize=20;html=1;fillColor=#d5e8d4;strokeColor=#82b366;" parent="d71gbB_h1juPHFCVinGQ-1" vertex="1">
          <mxGeometry x="220" y="20" width="160" height="600" as="geometry" />
        </mxCell>
        <mxCell id="GgHLMVIgbhOIDCqglWga-3" value="" style="edgeStyle=orthogonalEdgeStyle;rounded=0;orthogonalLoop=1;jettySize=auto;html=1;" parent="d71gbB_h1juPHFCVinGQ-23" source="GgHLMVIgbhOIDCqglWga-1" target="GgHLMVIgbhOIDCqglWga-2" edge="1">
          <mxGeometry relative="1" as="geometry" />
        </mxCell>
        <mxCell id="GgHLMVIgbhOIDCqglWga-1" value="&lt;font style=&quot;font-size: 16px;&quot;&gt;记录到商品修改审批表&lt;/font&gt;" style="rounded=0;whiteSpace=wrap;html=1;fillColor=#d5e8d4;strokeColor=#82b366;" parent="d71gbB_h1juPHFCVinGQ-23" vertex="1">
          <mxGeometry x="20" y="375" width="120" height="50" as="geometry" />
        </mxCell>
        <mxCell id="GgHLMVIgbhOIDCqglWga-5" style="edgeStyle=orthogonalEdgeStyle;rounded=0;orthogonalLoop=1;jettySize=auto;html=1;exitX=0.5;exitY=1;exitDx=0;exitDy=0;" parent="d71gbB_h1juPHFCVinGQ-23" source="GgHLMVIgbhOIDCqglWga-2" target="GgHLMVIgbhOIDCqglWga-4" edge="1">
          <mxGeometry relative="1" as="geometry" />
        </mxCell>
        <mxCell id="GgHLMVIgbhOIDCqglWga-2" value="&lt;font style=&quot;font-size: 15px;&quot;&gt;批量更新到供应商sku表&lt;/font&gt;" style="whiteSpace=wrap;html=1;rounded=0;fillColor=#d5e8d4;strokeColor=#82b366;" parent="d71gbB_h1juPHFCVinGQ-23" vertex="1">
          <mxGeometry x="20" y="455" width="120" height="40" as="geometry" />
        </mxCell>
        <mxCell id="GgHLMVIgbhOIDCqglWga-4" value="&lt;font style=&quot;font-size: 15px;&quot;&gt;更新结果数据&lt;/font&gt;" style="shape=parallelogram;perimeter=parallelogramPerimeter;whiteSpace=wrap;html=1;fixedSize=1;fillColor=#d5e8d4;strokeColor=#82b366;" parent="d71gbB_h1juPHFCVinGQ-23" vertex="1">
          <mxGeometry x="19.999999999999545" y="525" width="120" height="60" as="geometry" />
        </mxCell>
        <mxCell id="GgHLMVIgbhOIDCqglWga-8" style="edgeStyle=orthogonalEdgeStyle;rounded=0;orthogonalLoop=1;jettySize=auto;html=1;exitX=1;exitY=0.5;exitDx=0;exitDy=0;" parent="d71gbB_h1juPHFCVinGQ-1" source="GgHLMVIgbhOIDCqglWga-4" target="GgHLMVIgbhOIDCqglWga-6" edge="1">
          <mxGeometry relative="1" as="geometry" />
        </mxCell>
        <mxCell id="GgHLMVIgbhOIDCqglWga-9" style="edgeStyle=orthogonalEdgeStyle;rounded=0;orthogonalLoop=1;jettySize=auto;html=1;exitX=0;exitY=0.5;exitDx=0;exitDy=0;" parent="d71gbB_h1juPHFCVinGQ-1" source="d71gbB_h1juPHFCVinGQ-51" target="GgHLMVIgbhOIDCqglWga-1" edge="1">
          <mxGeometry relative="1" as="geometry" />
        </mxCell>
        <mxCell id="XH0CC4QkOKa2SrGTWgls-24" value="&lt;font style=&quot;font-size: 15px;&quot;&gt;商品&lt;/font&gt;" style="swimlane;startSize=20;html=1;fillColor=#ffe6cc;strokeColor=#d79b00;" parent="d71gbB_h1juPHFCVinGQ-1" vertex="1">
          <mxGeometry x="380" y="20" width="160" height="600" as="geometry" />
        </mxCell>
        <mxCell id="XH0CC4QkOKa2SrGTWgls-25" value="&lt;font style=&quot;font-size: 16px;&quot;&gt;查询当前供应商审批列表&lt;/font&gt;" style="rounded=0;whiteSpace=wrap;html=1;fillColor=#fff2cc;strokeColor=#d6b656;" parent="XH0CC4QkOKa2SrGTWgls-24" vertex="1">
          <mxGeometry x="51" y="85" width="50" height="100" as="geometry" />
        </mxCell>
        <mxCell id="XH0CC4QkOKa2SrGTWgls-26" value="&lt;font style=&quot;font-size: 16px;&quot;&gt;查询审批单详情&lt;/font&gt;" style="rounded=0;whiteSpace=wrap;html=1;fillColor=#fff2cc;strokeColor=#d6b656;" parent="XH0CC4QkOKa2SrGTWgls-24" vertex="1">
          <mxGeometry x="45" y="230" width="60" height="120" as="geometry" />
        </mxCell>
        <mxCell id="d71gbB_h1juPHFCVinGQ-51" value="&lt;font style=&quot;font-size: 16px;&quot;&gt;审批单生效&lt;/font&gt;" style="shape=process;whiteSpace=wrap;html=1;backgroundOutline=1;fillColor=#dae8fc;strokeColor=#6c8ebf;" parent="XH0CC4QkOKa2SrGTWgls-24" vertex="1">
          <mxGeometry x="14.999999999999545" y="370" width="120" height="60" as="geometry" />
        </mxCell>
        <mxCell id="GgHLMVIgbhOIDCqglWga-6" value="&lt;font style=&quot;font-size: 15px;&quot;&gt;更新审批单状态&lt;/font&gt;" style="whiteSpace=wrap;html=1;fillColor=#dae8fc;strokeColor=#6c8ebf;" parent="XH0CC4QkOKa2SrGTWgls-24" vertex="1">
          <mxGeometry x="17.5" y="537" width="115" height="35" as="geometry" />
        </mxCell>
      </root>
    </mxGraphModel>
  </diagram>
  <diagram id="cP4scIX25GcO9IC_oUog" name="第 5 页">
    <mxGraphModel dx="1149" dy="645" grid="1" gridSize="10" guides="1" tooltips="1" connect="1" arrows="1" fold="1" page="1" pageScale="1" pageWidth="827" pageHeight="1169" math="0" shadow="0">
      <root>
        <mxCell id="0" />
        <mxCell id="1" parent="0" />
        <mxCell id="r9u0wYK26ZsEJfU0g6Ts-1" value="商品管理" style="swimlane;childLayout=stackLayout;resizeParent=1;resizeParentMax=0;startSize=20;horizontal=0;horizontalStack=1;fontSize=14;fillColor=#dae8fc;strokeColor=#6c8ebf;" vertex="1" parent="1">
          <mxGeometry x="150" y="180" width="690" height="710" as="geometry">
            <mxRectangle x="150" y="180" width="40" height="80" as="alternateBounds" />
          </mxGeometry>
        </mxCell>
        <mxCell id="r9u0wYK26ZsEJfU0g6Ts-2" value="VSS" style="swimlane;startSize=20;fillColor=#d5e8d4;strokeColor=#82b366;" vertex="1" parent="r9u0wYK26ZsEJfU0g6Ts-1">
          <mxGeometry x="20" width="230" height="710" as="geometry" />
        </mxCell>
        <mxCell id="RK3a8DNBFauEt3mPIbVc-10" style="edgeStyle=orthogonalEdgeStyle;rounded=0;orthogonalLoop=1;jettySize=auto;html=1;exitX=0.5;exitY=1;exitDx=0;exitDy=0;entryX=0.5;entryY=0;entryDx=0;entryDy=0;" edge="1" parent="r9u0wYK26ZsEJfU0g6Ts-2" source="r9u0wYK26ZsEJfU0g6Ts-7" target="r9u0wYK26ZsEJfU0g6Ts-8">
          <mxGeometry relative="1" as="geometry" />
        </mxCell>
        <mxCell id="r9u0wYK26ZsEJfU0g6Ts-7" value="&lt;font style=&quot;font-size: 14px;&quot;&gt;供应商新建商品&lt;br&gt;基本商品信息&amp;amp;供应商信息&lt;/font&gt;" style="rounded=1;whiteSpace=wrap;html=1;" vertex="1" parent="r9u0wYK26ZsEJfU0g6Ts-2">
          <mxGeometry x="55" y="40" width="120" height="60" as="geometry" />
        </mxCell>
        <mxCell id="r9u0wYK26ZsEJfU0g6Ts-8" value="&lt;font style=&quot;font-size: 14px;&quot;&gt;供应商提交审核&lt;/font&gt;" style="rounded=0;whiteSpace=wrap;html=1;" vertex="1" parent="r9u0wYK26ZsEJfU0g6Ts-2">
          <mxGeometry x="65" y="150" width="100" height="30" as="geometry" />
        </mxCell>
        <mxCell id="RK3a8DNBFauEt3mPIbVc-11" value="" style="edgeStyle=orthogonalEdgeStyle;rounded=0;orthogonalLoop=1;jettySize=auto;html=1;" edge="1" parent="r9u0wYK26ZsEJfU0g6Ts-2" source="RK3a8DNBFauEt3mPIbVc-5" target="r9u0wYK26ZsEJfU0g6Ts-8">
          <mxGeometry relative="1" as="geometry" />
        </mxCell>
        <mxCell id="RK3a8DNBFauEt3mPIbVc-5" value="&lt;font style=&quot;font-size: 14px;&quot;&gt;供应商修改审核信息&lt;/font&gt;" style="rounded=0;whiteSpace=wrap;html=1;" vertex="1" parent="r9u0wYK26ZsEJfU0g6Ts-2">
          <mxGeometry x="62.5" y="230" width="105" height="40" as="geometry" />
        </mxCell>
        <mxCell id="RK3a8DNBFauEt3mPIbVc-21" style="edgeStyle=orthogonalEdgeStyle;rounded=0;orthogonalLoop=1;jettySize=auto;html=1;exitX=0.5;exitY=1;exitDx=0;exitDy=0;" edge="1" parent="r9u0wYK26ZsEJfU0g6Ts-2" source="RK3a8DNBFauEt3mPIbVc-19" target="RK3a8DNBFauEt3mPIbVc-20">
          <mxGeometry relative="1" as="geometry" />
        </mxCell>
        <mxCell id="RK3a8DNBFauEt3mPIbVc-19" value="&lt;span style=&quot;font-size: 14px;&quot;&gt;供应商修改商品&lt;/span&gt;" style="rounded=1;whiteSpace=wrap;html=1;" vertex="1" parent="r9u0wYK26ZsEJfU0g6Ts-2">
          <mxGeometry x="30" y="340" width="160" height="30" as="geometry" />
        </mxCell>
        <mxCell id="RK3a8DNBFauEt3mPIbVc-20" value="&lt;font style=&quot;font-size: 14px;&quot;&gt;供应商提交审核&lt;/font&gt;" style="rounded=0;whiteSpace=wrap;html=1;" vertex="1" parent="r9u0wYK26ZsEJfU0g6Ts-2">
          <mxGeometry x="60" y="390" width="100" height="30" as="geometry" />
        </mxCell>
        <mxCell id="RK3a8DNBFauEt3mPIbVc-27" style="edgeStyle=orthogonalEdgeStyle;rounded=0;orthogonalLoop=1;jettySize=auto;html=1;exitX=0.5;exitY=0;exitDx=0;exitDy=0;entryX=0.5;entryY=1;entryDx=0;entryDy=0;" edge="1" parent="r9u0wYK26ZsEJfU0g6Ts-2" source="RK3a8DNBFauEt3mPIbVc-24" target="RK3a8DNBFauEt3mPIbVc-20">
          <mxGeometry relative="1" as="geometry" />
        </mxCell>
        <mxCell id="RK3a8DNBFauEt3mPIbVc-24" value="&lt;font style=&quot;font-size: 14px;&quot;&gt;供应商修改审核信息&lt;/font&gt;" style="rounded=0;whiteSpace=wrap;html=1;" vertex="1" parent="r9u0wYK26ZsEJfU0g6Ts-2">
          <mxGeometry x="57.5" y="460" width="105" height="40" as="geometry" />
        </mxCell>
        <mxCell id="RK3a8DNBFauEt3mPIbVc-36" style="edgeStyle=orthogonalEdgeStyle;rounded=0;orthogonalLoop=1;jettySize=auto;html=1;exitX=0.5;exitY=1;exitDx=0;exitDy=0;" edge="1" parent="r9u0wYK26ZsEJfU0g6Ts-2" source="RK3a8DNBFauEt3mPIbVc-34" target="RK3a8DNBFauEt3mPIbVc-35">
          <mxGeometry relative="1" as="geometry" />
        </mxCell>
        <mxCell id="RK3a8DNBFauEt3mPIbVc-34" value="&lt;span style=&quot;font-size: 14px;&quot;&gt;供应商将商品&lt;br&gt;状态置为失效&lt;/span&gt;" style="rounded=1;whiteSpace=wrap;html=1;" vertex="1" parent="r9u0wYK26ZsEJfU0g6Ts-2">
          <mxGeometry x="30" y="535" width="160" height="40" as="geometry" />
        </mxCell>
        <mxCell id="RK3a8DNBFauEt3mPIbVc-35" value="&lt;font style=&quot;font-size: 14px;&quot;&gt;供应商提交审核&lt;/font&gt;" style="rounded=0;whiteSpace=wrap;html=1;" vertex="1" parent="r9u0wYK26ZsEJfU0g6Ts-2">
          <mxGeometry x="60" y="595" width="100" height="30" as="geometry" />
        </mxCell>
        <mxCell id="RK3a8DNBFauEt3mPIbVc-42" style="edgeStyle=orthogonalEdgeStyle;rounded=0;orthogonalLoop=1;jettySize=auto;html=1;exitX=0.5;exitY=0;exitDx=0;exitDy=0;entryX=0.5;entryY=1;entryDx=0;entryDy=0;" edge="1" parent="r9u0wYK26ZsEJfU0g6Ts-2" source="RK3a8DNBFauEt3mPIbVc-40" target="RK3a8DNBFauEt3mPIbVc-35">
          <mxGeometry relative="1" as="geometry" />
        </mxCell>
        <mxCell id="RK3a8DNBFauEt3mPIbVc-40" value="&lt;font style=&quot;font-size: 14px;&quot;&gt;供应商重新对接&lt;/font&gt;" style="rounded=0;whiteSpace=wrap;html=1;" vertex="1" parent="r9u0wYK26ZsEJfU0g6Ts-2">
          <mxGeometry x="57.5" y="645" width="105" height="40" as="geometry" />
        </mxCell>
        <mxCell id="RK3a8DNBFauEt3mPIbVc-23" style="edgeStyle=orthogonalEdgeStyle;rounded=0;orthogonalLoop=1;jettySize=auto;html=1;exitX=1;exitY=0.5;exitDx=0;exitDy=0;" edge="1" parent="r9u0wYK26ZsEJfU0g6Ts-1" source="RK3a8DNBFauEt3mPIbVc-20" target="RK3a8DNBFauEt3mPIbVc-22">
          <mxGeometry relative="1" as="geometry" />
        </mxCell>
        <mxCell id="RK3a8DNBFauEt3mPIbVc-25" style="edgeStyle=orthogonalEdgeStyle;rounded=0;orthogonalLoop=1;jettySize=auto;html=1;exitX=0.5;exitY=1;exitDx=0;exitDy=0;entryX=1;entryY=0.5;entryDx=0;entryDy=0;" edge="1" parent="r9u0wYK26ZsEJfU0g6Ts-1" source="RK3a8DNBFauEt3mPIbVc-22" target="RK3a8DNBFauEt3mPIbVc-24">
          <mxGeometry relative="1" as="geometry" />
        </mxCell>
        <mxCell id="RK3a8DNBFauEt3mPIbVc-29" style="edgeStyle=orthogonalEdgeStyle;rounded=0;orthogonalLoop=1;jettySize=auto;html=1;exitX=1;exitY=0.5;exitDx=0;exitDy=0;" edge="1" parent="r9u0wYK26ZsEJfU0g6Ts-1" source="RK3a8DNBFauEt3mPIbVc-22" target="RK3a8DNBFauEt3mPIbVc-28">
          <mxGeometry relative="1" as="geometry" />
        </mxCell>
        <mxCell id="RK3a8DNBFauEt3mPIbVc-31" style="edgeStyle=orthogonalEdgeStyle;rounded=0;orthogonalLoop=1;jettySize=auto;html=1;exitX=0.5;exitY=1;exitDx=0;exitDy=0;entryX=1;entryY=0.5;entryDx=0;entryDy=0;" edge="1" parent="r9u0wYK26ZsEJfU0g6Ts-1" source="RK3a8DNBFauEt3mPIbVc-28" target="RK3a8DNBFauEt3mPIbVc-30">
          <mxGeometry relative="1" as="geometry" />
        </mxCell>
        <mxCell id="RK3a8DNBFauEt3mPIbVc-38" style="edgeStyle=orthogonalEdgeStyle;rounded=0;orthogonalLoop=1;jettySize=auto;html=1;entryX=0;entryY=0.5;entryDx=0;entryDy=0;" edge="1" parent="r9u0wYK26ZsEJfU0g6Ts-1" source="RK3a8DNBFauEt3mPIbVc-35" target="RK3a8DNBFauEt3mPIbVc-37">
          <mxGeometry relative="1" as="geometry" />
        </mxCell>
        <mxCell id="RK3a8DNBFauEt3mPIbVc-41" style="edgeStyle=orthogonalEdgeStyle;rounded=0;orthogonalLoop=1;jettySize=auto;html=1;exitX=0.5;exitY=1;exitDx=0;exitDy=0;entryX=1;entryY=0.5;entryDx=0;entryDy=0;" edge="1" parent="r9u0wYK26ZsEJfU0g6Ts-1" source="RK3a8DNBFauEt3mPIbVc-37" target="RK3a8DNBFauEt3mPIbVc-40">
          <mxGeometry relative="1" as="geometry" />
        </mxCell>
        <mxCell id="RK3a8DNBFauEt3mPIbVc-49" style="edgeStyle=orthogonalEdgeStyle;rounded=0;orthogonalLoop=1;jettySize=auto;html=1;exitX=1;exitY=0.5;exitDx=0;exitDy=0;" edge="1" parent="r9u0wYK26ZsEJfU0g6Ts-1" source="RK3a8DNBFauEt3mPIbVc-44" target="RK3a8DNBFauEt3mPIbVc-46">
          <mxGeometry relative="1" as="geometry" />
        </mxCell>
        <mxCell id="r9u0wYK26ZsEJfU0g6Ts-3" value="商品中心" style="swimlane;startSize=20;fillColor=#ffe6cc;strokeColor=#d79b00;" vertex="1" parent="r9u0wYK26ZsEJfU0g6Ts-1">
          <mxGeometry x="250" width="300" height="710" as="geometry" />
        </mxCell>
        <mxCell id="r9u0wYK26ZsEJfU0g6Ts-9" value="" style="endArrow=none;html=1;rounded=0;" edge="1" parent="r9u0wYK26ZsEJfU0g6Ts-3">
          <mxGeometry width="50" height="50" relative="1" as="geometry">
            <mxPoint y="50" as="sourcePoint" />
            <mxPoint x="300" y="50" as="targetPoint" />
          </mxGeometry>
        </mxCell>
        <mxCell id="r9u0wYK26ZsEJfU0g6Ts-12" value="店铺层" style="text;html=1;align=center;verticalAlign=middle;resizable=0;points=[];autosize=1;strokeColor=none;fillColor=none;" vertex="1" parent="r9u0wYK26ZsEJfU0g6Ts-3">
          <mxGeometry x="190" y="20" width="60" height="30" as="geometry" />
        </mxCell>
        <mxCell id="RK3a8DNBFauEt3mPIbVc-2" value="" style="edgeStyle=orthogonalEdgeStyle;rounded=0;orthogonalLoop=1;jettySize=auto;html=1;exitX=0.499;exitY=0.85;exitDx=0;exitDy=0;exitPerimeter=0;" edge="1" parent="r9u0wYK26ZsEJfU0g6Ts-3" source="r9u0wYK26ZsEJfU0g6Ts-15" target="RK3a8DNBFauEt3mPIbVc-1">
          <mxGeometry relative="1" as="geometry" />
        </mxCell>
        <mxCell id="r9u0wYK26ZsEJfU0g6Ts-15" value="地采商品由材料部审核&lt;br&gt;集采商品由平台审核" style="strokeWidth=2;html=1;shape=mxgraph.flowchart.document2;whiteSpace=wrap;size=0.25;fillColor=#fff2cc;strokeColor=#d6b656;" vertex="1" parent="r9u0wYK26ZsEJfU0g6Ts-3">
          <mxGeometry x="10" y="60" width="130" height="60" as="geometry" />
        </mxCell>
        <mxCell id="RK3a8DNBFauEt3mPIbVc-1" value="&lt;font style=&quot;font-size: 14px;&quot;&gt;材料部/平台&lt;br&gt;审核信息&lt;/font&gt;" style="rhombus;whiteSpace=wrap;html=1;strokeWidth=2;" vertex="1" parent="r9u0wYK26ZsEJfU0g6Ts-3">
          <mxGeometry x="16.88" y="130" width="116.25" height="70" as="geometry" />
        </mxCell>
        <mxCell id="RK3a8DNBFauEt3mPIbVc-18" style="edgeStyle=orthogonalEdgeStyle;rounded=0;orthogonalLoop=1;jettySize=auto;html=1;exitX=0.5;exitY=1;exitDx=0;exitDy=0;" edge="1" parent="r9u0wYK26ZsEJfU0g6Ts-3" source="RK3a8DNBFauEt3mPIbVc-6" target="RK3a8DNBFauEt3mPIbVc-7">
          <mxGeometry relative="1" as="geometry" />
        </mxCell>
        <mxCell id="RK3a8DNBFauEt3mPIbVc-6" value="&lt;font style=&quot;font-size: 14px;&quot;&gt;材料部/平台补充运营信息&lt;/font&gt;" style="rounded=0;whiteSpace=wrap;html=1;" vertex="1" parent="r9u0wYK26ZsEJfU0g6Ts-3">
          <mxGeometry x="167.5" y="210" width="105" height="40" as="geometry" />
        </mxCell>
        <mxCell id="RK3a8DNBFauEt3mPIbVc-7" value="&lt;font style=&quot;font-size: 14px;&quot;&gt;操作商品上架&lt;/font&gt;" style="rounded=0;whiteSpace=wrap;html=1;" vertex="1" parent="r9u0wYK26ZsEJfU0g6Ts-3">
          <mxGeometry x="167.5" y="270" width="105" height="40" as="geometry" />
        </mxCell>
        <mxCell id="RK3a8DNBFauEt3mPIbVc-16" value="&lt;font style=&quot;font-size: 13px;&quot;&gt;审核通过&lt;/font&gt;" style="text;html=1;strokeColor=none;fillColor=none;align=center;verticalAlign=middle;whiteSpace=wrap;rounded=0;" vertex="1" parent="r9u0wYK26ZsEJfU0g6Ts-3">
          <mxGeometry x="180" y="120" width="60" height="30" as="geometry" />
        </mxCell>
        <mxCell id="RK3a8DNBFauEt3mPIbVc-17" value="" style="endArrow=classic;html=1;rounded=0;entryX=0.5;entryY=0;entryDx=0;entryDy=0;exitX=1;exitY=0.511;exitDx=0;exitDy=0;exitPerimeter=0;" edge="1" parent="r9u0wYK26ZsEJfU0g6Ts-3" source="RK3a8DNBFauEt3mPIbVc-1" target="RK3a8DNBFauEt3mPIbVc-6">
          <mxGeometry width="50" height="50" relative="1" as="geometry">
            <mxPoint x="220" y="170" as="sourcePoint" />
            <mxPoint x="240" y="80" as="targetPoint" />
            <Array as="points">
              <mxPoint x="220" y="165" />
            </Array>
          </mxGeometry>
        </mxCell>
        <mxCell id="RK3a8DNBFauEt3mPIbVc-32" style="edgeStyle=orthogonalEdgeStyle;rounded=0;orthogonalLoop=1;jettySize=auto;html=1;exitX=1;exitY=0.5;exitDx=0;exitDy=0;entryX=0.5;entryY=0;entryDx=0;entryDy=0;" edge="1" parent="r9u0wYK26ZsEJfU0g6Ts-3" source="RK3a8DNBFauEt3mPIbVc-22" target="RK3a8DNBFauEt3mPIbVc-30">
          <mxGeometry relative="1" as="geometry" />
        </mxCell>
        <mxCell id="RK3a8DNBFauEt3mPIbVc-22" value="&lt;font style=&quot;font-size: 14px;&quot;&gt;材料部/平台&lt;br&gt;审核信息&lt;/font&gt;" style="rhombus;whiteSpace=wrap;html=1;strokeWidth=2;" vertex="1" parent="r9u0wYK26ZsEJfU0g6Ts-3">
          <mxGeometry x="16.879999999999995" y="320" width="116.25" height="70" as="geometry" />
        </mxCell>
        <mxCell id="RK3a8DNBFauEt3mPIbVc-26" value="&lt;font style=&quot;font-size: 13px;&quot;&gt;审核不通过&lt;/font&gt;" style="text;html=1;strokeColor=none;fillColor=none;align=center;verticalAlign=middle;whiteSpace=wrap;rounded=0;" vertex="1" parent="r9u0wYK26ZsEJfU0g6Ts-3">
          <mxGeometry x="-30" y="440" width="60" height="30" as="geometry" />
        </mxCell>
        <mxCell id="RK3a8DNBFauEt3mPIbVc-30" value="&lt;font style=&quot;font-size: 14px;&quot;&gt;系统变更商品信息&lt;/font&gt;" style="rounded=0;whiteSpace=wrap;html=1;" vertex="1" parent="r9u0wYK26ZsEJfU0g6Ts-3">
          <mxGeometry x="180" y="400" width="92.5" height="40" as="geometry" />
        </mxCell>
        <mxCell id="RK3a8DNBFauEt3mPIbVc-33" value="&lt;font style=&quot;font-size: 13px;&quot;&gt;审核通过&lt;/font&gt;" style="text;html=1;strokeColor=none;fillColor=none;align=center;verticalAlign=middle;whiteSpace=wrap;rounded=0;" vertex="1" parent="r9u0wYK26ZsEJfU0g6Ts-3">
          <mxGeometry x="150" y="330" width="60" height="30" as="geometry" />
        </mxCell>
        <mxCell id="RK3a8DNBFauEt3mPIbVc-48" style="edgeStyle=orthogonalEdgeStyle;rounded=0;orthogonalLoop=1;jettySize=auto;html=1;exitX=1;exitY=0.5;exitDx=0;exitDy=0;" edge="1" parent="r9u0wYK26ZsEJfU0g6Ts-3" source="RK3a8DNBFauEt3mPIbVc-37" target="RK3a8DNBFauEt3mPIbVc-44">
          <mxGeometry relative="1" as="geometry" />
        </mxCell>
        <mxCell id="RK3a8DNBFauEt3mPIbVc-37" value="&lt;font style=&quot;font-size: 14px;&quot;&gt;材料部/平台&lt;br&gt;审核信息&lt;/font&gt;" style="rhombus;whiteSpace=wrap;html=1;strokeWidth=2;" vertex="1" parent="r9u0wYK26ZsEJfU0g6Ts-3">
          <mxGeometry x="16.88" y="520" width="116.25" height="70" as="geometry" />
        </mxCell>
        <mxCell id="RK3a8DNBFauEt3mPIbVc-43" value="&lt;font style=&quot;font-size: 13px;&quot;&gt;审核不通过&lt;/font&gt;" style="text;html=1;strokeColor=none;fillColor=none;align=center;verticalAlign=middle;whiteSpace=wrap;rounded=0;" vertex="1" parent="r9u0wYK26ZsEJfU0g6Ts-3">
          <mxGeometry x="-20" y="625" width="60" height="30" as="geometry" />
        </mxCell>
        <mxCell id="RK3a8DNBFauEt3mPIbVc-44" value="&lt;span style=&quot;font-size: 14px;&quot;&gt;材料部/平台修改运营信息：&lt;br&gt;商品状态修改为停止选品或修改供方&lt;br&gt;&lt;/span&gt;" style="rounded=0;whiteSpace=wrap;html=1;" vertex="1" parent="r9u0wYK26ZsEJfU0g6Ts-3">
          <mxGeometry x="180" y="510" width="106.25" height="90" as="geometry" />
        </mxCell>
        <mxCell id="RK3a8DNBFauEt3mPIbVc-50" value="&lt;font style=&quot;font-size: 13px;&quot;&gt;审核通过&lt;/font&gt;" style="text;html=1;strokeColor=none;fillColor=none;align=center;verticalAlign=middle;whiteSpace=wrap;rounded=0;" vertex="1" parent="r9u0wYK26ZsEJfU0g6Ts-3">
          <mxGeometry x="110" y="510" width="60" height="30" as="geometry" />
        </mxCell>
        <mxCell id="r9u0wYK26ZsEJfU0g6Ts-4" value="SRM" style="swimlane;startSize=20;fillColor=#f8cecc;strokeColor=#b85450;" vertex="1" parent="r9u0wYK26ZsEJfU0g6Ts-1">
          <mxGeometry x="550" width="140" height="710" as="geometry" />
        </mxCell>
        <mxCell id="RK3a8DNBFauEt3mPIbVc-15" style="edgeStyle=orthogonalEdgeStyle;rounded=0;orthogonalLoop=1;jettySize=auto;html=1;exitX=0.5;exitY=1;exitDx=0;exitDy=0;" edge="1" parent="r9u0wYK26ZsEJfU0g6Ts-4" source="RK3a8DNBFauEt3mPIbVc-8" target="RK3a8DNBFauEt3mPIbVc-9">
          <mxGeometry relative="1" as="geometry" />
        </mxCell>
        <mxCell id="RK3a8DNBFauEt3mPIbVc-8" value="&lt;font style=&quot;font-size: 14px;&quot;&gt;系统新增sku-供应商关系&lt;/font&gt;" style="rounded=0;whiteSpace=wrap;html=1;" vertex="1" parent="r9u0wYK26ZsEJfU0g6Ts-4">
          <mxGeometry x="17.5" y="145" width="105" height="40" as="geometry" />
        </mxCell>
        <mxCell id="RK3a8DNBFauEt3mPIbVc-9" value="&lt;font style=&quot;font-size: 14px;&quot;&gt;sku供应商运营信息同步&lt;/font&gt;" style="rounded=0;whiteSpace=wrap;html=1;" vertex="1" parent="r9u0wYK26ZsEJfU0g6Ts-4">
          <mxGeometry x="17.5" y="210" width="105" height="40" as="geometry" />
        </mxCell>
        <mxCell id="RK3a8DNBFauEt3mPIbVc-28" value="&lt;font style=&quot;font-size: 14px;&quot;&gt;系统变更供应商商品运营信息&lt;/font&gt;" style="rounded=0;whiteSpace=wrap;html=1;" vertex="1" parent="r9u0wYK26ZsEJfU0g6Ts-4">
          <mxGeometry x="17.5" y="335" width="105" height="40" as="geometry" />
        </mxCell>
        <mxCell id="RK3a8DNBFauEt3mPIbVc-46" value="&lt;font style=&quot;font-size: 14px;&quot;&gt;系统新增sku-供应商关系&lt;/font&gt;" style="rounded=0;whiteSpace=wrap;html=1;" vertex="1" parent="r9u0wYK26ZsEJfU0g6Ts-4">
          <mxGeometry x="22" y="535" width="105" height="40" as="geometry" />
        </mxCell>
        <mxCell id="RK3a8DNBFauEt3mPIbVc-47" value="&lt;font style=&quot;font-size: 14px;&quot;&gt;sku供应商运营信息同步&lt;/font&gt;" style="rounded=0;whiteSpace=wrap;html=1;" vertex="1" parent="r9u0wYK26ZsEJfU0g6Ts-4">
          <mxGeometry x="22" y="600" width="105" height="40" as="geometry" />
        </mxCell>
        <mxCell id="RK3a8DNBFauEt3mPIbVc-45" style="edgeStyle=orthogonalEdgeStyle;rounded=0;orthogonalLoop=1;jettySize=auto;html=1;exitX=0.5;exitY=1;exitDx=0;exitDy=0;" edge="1" parent="r9u0wYK26ZsEJfU0g6Ts-4" source="RK3a8DNBFauEt3mPIbVc-46" target="RK3a8DNBFauEt3mPIbVc-47">
          <mxGeometry relative="1" as="geometry" />
        </mxCell>
        <mxCell id="r9u0wYK26ZsEJfU0g6Ts-10" value="" style="endArrow=none;html=1;rounded=0;exitX=0.5;exitY=1;exitDx=0;exitDy=0;" edge="1" parent="r9u0wYK26ZsEJfU0g6Ts-1" source="r9u0wYK26ZsEJfU0g6Ts-3">
          <mxGeometry width="50" height="50" relative="1" as="geometry">
            <mxPoint x="339.58" y="80" as="sourcePoint" />
            <mxPoint x="400" y="20" as="targetPoint" />
          </mxGeometry>
        </mxCell>
        <mxCell id="RK3a8DNBFauEt3mPIbVc-12" style="edgeStyle=orthogonalEdgeStyle;rounded=0;orthogonalLoop=1;jettySize=auto;html=1;exitX=1;exitY=0.5;exitDx=0;exitDy=0;" edge="1" parent="r9u0wYK26ZsEJfU0g6Ts-1" source="r9u0wYK26ZsEJfU0g6Ts-8" target="RK3a8DNBFauEt3mPIbVc-1">
          <mxGeometry relative="1" as="geometry" />
        </mxCell>
        <mxCell id="RK3a8DNBFauEt3mPIbVc-13" style="edgeStyle=orthogonalEdgeStyle;rounded=0;orthogonalLoop=1;jettySize=auto;html=1;exitX=0.5;exitY=1;exitDx=0;exitDy=0;entryX=1;entryY=0.5;entryDx=0;entryDy=0;" edge="1" parent="r9u0wYK26ZsEJfU0g6Ts-1" source="RK3a8DNBFauEt3mPIbVc-1" target="RK3a8DNBFauEt3mPIbVc-5">
          <mxGeometry relative="1" as="geometry" />
        </mxCell>
        <mxCell id="RK3a8DNBFauEt3mPIbVc-14" style="edgeStyle=orthogonalEdgeStyle;rounded=0;orthogonalLoop=1;jettySize=auto;html=1;exitX=1;exitY=0.5;exitDx=0;exitDy=0;entryX=0;entryY=0.5;entryDx=0;entryDy=0;" edge="1" parent="r9u0wYK26ZsEJfU0g6Ts-1" source="RK3a8DNBFauEt3mPIbVc-1" target="RK3a8DNBFauEt3mPIbVc-8">
          <mxGeometry relative="1" as="geometry" />
        </mxCell>
        <mxCell id="r9u0wYK26ZsEJfU0g6Ts-11" value="流程中心" style="text;html=1;align=center;verticalAlign=middle;resizable=0;points=[];autosize=1;strokeColor=none;fillColor=none;" vertex="1" parent="1">
          <mxGeometry x="395" y="198" width="70" height="30" as="geometry" />
        </mxCell>
        <mxCell id="RK3a8DNBFauEt3mPIbVc-4" value="&lt;font style=&quot;font-size: 13px;&quot;&gt;审核不通过&lt;/font&gt;" style="text;html=1;strokeColor=none;fillColor=none;align=center;verticalAlign=middle;whiteSpace=wrap;rounded=0;" vertex="1" parent="1">
          <mxGeometry x="370" y="395" width="60" height="30" as="geometry" />
        </mxCell>
      </root>
    </mxGraphModel>
  </diagram>
</mxfile>
